<?xml version="1.0" encoding="UTF-8" standalone="no"?>
<svg width="1200" height="600" viewBox="0 0 1200 600" fill="none" xmlns="http://www.w3.org/2000/svg">
  <rect width="1200" height="600" fill="#0066CC"/>
  <path d="M0 600L1200 600L1200 500C1000 550 800 450 600 500C400 550 200 450 0 500L0 600Z" fill="#004999"/>
  <circle cx="200" cy="200" r="50" fill="#ffffff" fill-opacity="0.1"/>
  <circle cx="400" cy="300" r="70" fill="#ffffff" fill-opacity="0.1"/>
  <circle cx="700" cy="150" r="100" fill="#ffffff" fill-opacity="0.1"/>
  <circle cx="900" cy="250" r="60" fill="#ffffff" fill-opacity="0.1"/>
  <circle cx="1100" cy="350" r="80" fill="#ffffff" fill-opacity="0.1"/>
  
  <!-- Pokemon Card Silhouettes -->
  <rect x="100" y="100" width="120" height="170" rx="10" fill="#ffffff" fill-opacity="0.05"/>
  <rect x="300" y="200" width="120" height="170" rx="10" fill="#ffffff" fill-opacity="0.05"/>
  <rect x="500" y="150" width="120" height="170" rx="10" fill="#ffffff" fill-opacity="0.05"/>
  <rect x="700" y="250" width="120" height="170" rx="10" fill="#ffffff" fill-opacity="0.05"/>
  <rect x="900" y="100" width="120" height="170" rx="10" fill="#ffffff" fill-opacity="0.05"/>
</svg>