<?xml version="1.0" encoding="UTF-8" standalone="no"?>
<svg width="300" height="40" viewBox="0 0 300 40" fill="none" xmlns="http://www.w3.org/2000/svg">
  <!-- Visa -->
  <rect x="10" y="5" width="50" height="30" rx="4" fill="#ffffff"/>
  <path d="M20 20L25 15H30L25 25H20L15 15H20L20 20Z" fill="#0066CC"/>
  <path d="M35 15H45L47 25H42L41.5 23H38.5L38 25H33L35 15ZM39 20H41L40.5 18L40 20H39Z" fill="#0066CC"/>
  
  <!-- Mastercard -->
  <rect x="70" y="5" width="50" height="30" rx="4" fill="#ffffff"/>
  <circle cx="85" cy="20" r="10" fill="#FF0000" fill-opacity="0.8"/>
  <circle cx="95" cy="20" r="10" fill="#FFAA00" fill-opacity="0.8"/>
  
  <!-- PayPal -->
  <rect x="130" y="5" width="50" height="30" rx="4" fill="#ffffff"/>
  <path d="M140 15H145C147 15 148 16 148 18C148 20 147 21 145 21H143L142 25H137L140 15ZM142 17L141 19H143C143.5 19 144 18.5 144 18C144 17.5 143.5 17 143 17H142Z" fill="#0066CC"/>
  <path d="M147 17H152C154 17 155 18 155 20C155 22 154 23 152 23H150L149 27H144L147 17ZM149 19L148 21H150C150.5 21 151 20.5 151 20C151 19.5 150.5 19 150 19H149Z" fill="#0055AA"/>
  
  <!-- iDEAL -->
  <rect x="190" y="5" width="50" height="30" rx="4" fill="#ffffff"/>
  <rect x="200" y="12" width="30" height="16" rx="2" fill="#0066CC"/>
  <path d="M205 20L210 15H215L210 25H205L200 15H205L205 20Z" fill="#ffffff"/>
  <path d="M220 15H225L227 25H222L220 15Z" fill="#ffffff"/>
  
  <!-- Bank Transfer -->
  <rect x="250" y="5" width="40" height="30" rx="4" fill="#ffffff"/>
  <rect x="255" y="10" width="30" height="5" rx="1" fill="#0066CC"/>
  <rect x="255" y="17" width="30" height="3" rx="1" fill="#0066CC"/>
  <rect x="255" y="22" width="30" height="3" rx="1" fill="#0066CC"/>
  <rect x="255" y="27" width="20" height="3" rx="1" fill="#0066CC"/>
</svg>